<?xml version="1.0" encoding="UTF-8"?>
<svg version="1.1" xmlns="http://www.w3.org/2000/svg" width="1563" height="1563">
<path d="M0 0 C515.79 0 1031.58 0 1563 0 C1563 515.79 1563 1031.58 1563 1563 C1047.21 1563 531.42 1563 0 1563 C0 1047.21 0 531.42 0 0 Z " fill="#E3E1DC" transform="translate(0,0)"/>
<path d="M0 0 C46.21830137 -0.24248846 92.436003 -0.44559746 138.65475842 -0.56171862 C144.11090452 -0.57547645 149.56704927 -0.58971399 155.02319336 -0.60424805 C156.10941634 -0.60713346 157.19563933 -0.61001888 158.31477816 -0.61299173 C175.90432652 -0.66086025 193.49347954 -0.74759238 211.08279335 -0.84868076 C229.13024019 -0.95153726 247.17747994 -1.01264427 265.22520787 -1.03497344 C276.36245645 -1.05006935 287.49858765 -1.09775011 298.63549227 -1.18708114 C306.27188293 -1.2452148 313.90769572 -1.26280431 321.54429161 -1.24851515 C325.95112785 -1.2414667 330.35601156 -1.25228758 334.76250076 -1.31126022 C338.79977999 -1.36489664 342.83379965 -1.36744139 346.87123073 -1.32988784 C348.32905134 -1.32524916 349.78707738 -1.33913086 351.24449509 -1.37371501 C362.11512962 -1.61660699 362.11512962 -1.61660699 366.82470524 2.42268026 C369.10756574 5.18582299 371.07971153 7.9775372 373 11 C373.85849582 12.10135379 374.7308139 13.19240805 375.62890625 14.26171875 C377.41927083 16.5078125 379.20963542 18.75390625 381 21 C377.16573058 28.89347574 373.05030711 36.52381106 368.5625 44.0625 C363.45712686 52.72459371 358.48416688 61.44748653 353.625 70.25 C348.14148013 80.17932753 342.56941415 90.05167694 336.92492676 99.88989258 C332.18818901 108.14726377 327.50723224 116.43351206 322.875 124.75 C316.46732936 136.24898686 309.85557553 147.62340872 303.17651367 158.96655273 C302.41142348 160.28890928 301.68322615 161.6335477 301 163 C247.54 163 194.08 163 139 163 C140.51612071 158.45163786 141.85516465 155.20994737 144.203125 151.16796875 C144.84668945 150.05236572 145.49025391 148.9367627 146.15332031 147.78735352 C146.49480103 147.20108185 146.83628174 146.61481018 147.18811035 146.01077271 C149.01116059 142.8805814 150.81648096 139.74016365 152.625 136.6015625 C153.17791718 135.64386711 153.17791718 135.64386711 153.74200439 134.66682434 C157.30089974 128.49670529 160.78227395 122.28426729 164.25 116.0625 C170.42686385 104.99915047 176.69665442 93.99164556 183 83 C185.62677923 78.41768338 188.25185341 73.83439666 190.875 69.25 C191.21147552 68.66217743 191.54795105 68.07435486 191.8946228 67.46871948 C197.46185527 57.7390359 202.95974331 47.9725335 208.39599609 38.16894531 C208.92918457 37.21084961 209.46237305 36.25275391 210.01171875 35.265625 C210.69947388 34.02474121 210.69947388 34.02474121 211.40112305 32.75878906 C213.51069265 29.11882319 215.77024492 25.56760813 218 22 C154.31 22 90.62 22 25 22 C25 57.97 25 93.94 25 131 C16.75 131 8.5 131 0 131 C0 87.77 0 44.54 0 0 Z " fill="#000000" transform="translate(802,516)"/>
<path d="M0 0 C1.59677517 0.00225729 3.19355864 0.00098855 4.79032898 -0.00354004 C9.12120172 -0.00583516 13.45030132 0.04118924 17.78076196 0.09705162 C22.30770385 0.14706915 26.83468661 0.15176193 31.36186218 0.16125488 C39.93275178 0.18611816 48.50282484 0.25176422 57.0733549 0.3320508 C66.83133168 0.42147637 76.5893475 0.46545743 86.34763205 0.50561428 C106.41930351 0.58923088 126.49023997 0.72994043 146.5612793 0.90820312 C145.46362939 3.12444352 144.36369243 5.33949991 143.26245117 7.55395508 C142.95555359 8.17419807 142.64865601 8.79444107 142.3324585 9.43347931 C139.49104367 15.13937847 136.32857453 20.62346128 133.0612793 26.09570312 C127.92507992 34.79455213 122.93793876 43.56132884 118.0612793 52.40820312 C113.33536077 60.97423528 108.52203384 69.47597067 103.5612793 77.90820312 C97.93405196 87.47393174 92.49339929 97.1332407 87.14916992 106.859375 C81.7640003 116.63562291 76.15921745 126.23903722 70.5612793 135.90820312 C137.2212793 135.90820312 203.8812793 135.90820312 272.5612793 135.90820312 C272.5612793 99.93820312 272.5612793 63.96820312 272.5612793 26.90820312 C281.1412793 26.90820312 289.7212793 26.90820312 298.5612793 26.90820312 C298.5612793 70.13820313 298.5612793 113.36820313 298.5612793 157.90820312 C250.94164438 158.15068462 203.32259147 158.35379637 155.7025159 158.46992175 C150.08113582 158.4836796 144.45975704 158.49791713 138.83837891 158.51245117 C137.15969929 158.51677929 137.15969929 158.51677929 135.44710695 158.52119485 C117.32407636 158.56906535 99.20142942 158.6557986 81.07862646 158.75688388 C62.48425289 158.85973482 43.8900803 158.92084623 25.29543394 158.94317657 C13.82039565 158.9582736 2.34644169 159.00596073 -9.12826283 159.09528426 C-16.99592247 159.15341099 -24.86302121 159.17100896 -32.73088001 159.15671828 C-37.27136121 159.14966882 -41.80994742 159.16050325 -46.35009193 159.21946335 C-50.50946888 159.27308386 -54.66568153 159.27565365 -58.82520563 159.23809097 C-60.32743853 159.23345083 -61.82987055 159.24734489 -63.33171272 159.28191813 C-74.53066872 159.52467589 -74.53066872 159.52467589 -79.23404992 155.54004252 C-81.52318816 152.76133397 -83.47853369 149.92416954 -85.4387207 146.90820312 C-86.80788125 145.28121179 -88.19952943 143.67248891 -89.6262207 142.09570312 C-91.41918945 140.07617188 -91.41918945 140.07617188 -92.4387207 137.90820312 C-91.32874778 133.80890783 -89.68937652 130.27613797 -87.6027832 126.59179688 C-87.03962402 125.59172607 -86.47646484 124.59165527 -85.89624023 123.5612793 C-84.98914307 121.96956909 -84.98914307 121.96956909 -84.0637207 120.34570312 C-83.43449707 119.23235596 -82.80527344 118.11900879 -82.15698242 116.97192383 C-80.2568186 113.61394589 -78.34905055 110.26040614 -76.4387207 106.90820312 C-75.91922852 105.99490234 -75.39973633 105.08160156 -74.86450195 104.140625 C-71.40204588 98.05579938 -67.92150397 91.98140961 -64.4387207 85.90820312 C-61.8119415 81.32588656 -59.18678541 76.74264662 -56.5637207 72.15820312 C-56.22425415 71.56506317 -55.8847876 70.97192322 -55.53503418 70.36080933 C-50.74469894 61.98738403 -46.00984105 53.58494217 -41.3137207 45.15820312 C-36.58135713 36.6732628 -31.77012225 28.23856991 -26.8762207 19.84570312 C-26.30436035 18.8644043 -25.7325 17.88310547 -25.14331055 16.87207031 C-23.58528005 14.21080078 -22.02665863 11.55175483 -20.4387207 8.90820312 C-20.20434736 8.25375749 -19.96997402 7.59931185 -19.72849846 6.92503452 C-16.00602949 -1.62924351 -8.0370703 -0.15824498 0 0 Z " fill="#000000" transform="translate(878.438720703125,814.091796875)"/>
<path d="M0 0 C43.56 0 87.12 0 132 0 C132 44.22 132 88.44 132 134 C189.42 134 246.84 134 306 134 C306 98.36 306 62.72 306 26 C314.25 26 322.5 26 331 26 C331 69.56 331 113.12 331 158 C206.92 158 82.84 158 -45 158 C-45 150.41 -45 142.82 -45 135 C-30.15 135 -15.3 135 0 135 C0 90.45 0 45.9 0 0 Z " fill="#020202" transform="translate(414,815)"/>
<path d="M0 0 C73.26 0 146.52 0 222 0 C222 7.26 222 14.52 222 22 C207.15 22 192.3 22 177 22 C177 68.86 177 115.72 177 164 C133.44 164 89.88 164 45 164 C45 117.14 45 70.28 45 22 C30.15 22 15.3 22 0 22 C0 14.74 0 7.48 0 0 Z " fill="#010101" transform="translate(369,516)"/>
<path d="M0 0 C8.08028256 6.83847072 12.52278952 15.35287322 13.91015625 25.890625 C14.27454731 35.96683004 10.67054931 45.31487044 4.5625 53.25 C-2.96353679 60.79045448 -11.55286398 64.60485142 -22.1875 64.9375 C-31.71098513 64.90033408 -39.28959685 61.42373397 -46.6875 55.42578125 C-54.10579765 47.79964337 -57.8312505 36.54558449 -57.72265625 26.04296875 C-56.60715243 15.11714371 -50.53278649 6.29907362 -42.4375 -0.75 C-30.36819694 -9.94430398 -12.04484904 -8.46144865 0 0 Z " fill="#9ECAE0" transform="translate(1267.4375,912.75)"/>
<path d="M0 0 C7.72205624 4.46927227 13.12454313 10.64281622 15.890625 19.20703125 C17.51752031 28.00853485 16.79582917 36.54298438 12.28125 44.3203125 C7.70531439 50.90039206 1.40867028 56.84784915 -6.71875 58.3203125 C-16.9140331 59.28837424 -25.21508128 58.54781125 -33.71875 52.3203125 C-36.56633863 49.56409035 -38.70637691 46.72722483 -40.71875 43.3203125 C-41.07710937 42.72863281 -41.43546875 42.13695312 -41.8046875 41.52734375 C-45.26533245 34.33618703 -45.12393769 23.71988824 -42.734375 16.23828125 C-41.54365458 13.78701422 -40.2525947 11.56995139 -38.71875 9.3203125 C-38.120625 8.3921875 -37.5225 7.4640625 -36.90625 6.5078125 C-27.07517122 -3.32326628 -12.65670278 -5.87632629 0 0 Z " fill="#E0DED9" transform="translate(1004.71875,713.6796875)"/>
<path d="M0 0 C7.89821432 8.44925253 10.16996935 16.52593249 9.96484375 27.78125 C9.6161293 35.34540428 6.66948313 41.79527076 1.53125 47.33984375 C-6.98993817 54.43481611 -16.58356908 55.75855902 -27.3125 54.875 C-34.65986128 53.02141038 -41.43391418 48.21423322 -45.62890625 41.890625 C-50.03031438 33.51008406 -51.89692444 24.58373385 -49.6953125 15.26171875 C-46.88065637 7.25364842 -41.6808873 0.32632774 -34.0625 -3.625 C-22.61012414 -8.73597766 -10.33431685 -6.62956176 0 0 Z " fill="#E0DED9" transform="translate(842.3125,717.125)"/>
<path d="M0 0 C12.8093161 -2.19448943 12.8093161 -2.19448943 17.7421875 1.19824219 C21.22670167 4.62424773 23.88798136 8.6652548 26.53369141 12.75341797 C28.04007532 15.06140078 29.61916586 17.29934719 31.23046875 19.53515625 C33.69684914 22.96031424 36.12451667 26.40860076 38.52124023 29.8828125 C40.6560701 32.93931648 42.83300907 35.96621269 45 39 C45.33 28.77 45.66 18.54 46 8 C44.02 8 42.04 8 40 8 C40 5.36 40 2.72 40 0 C46.93 0 53.86 0 61 0 C61 2.31 61 4.62 61 7 C60 8 60 8 57.4375 8.0625 C56.633125 8.041875 55.82875 8.02125 55 8 C55.00222061 8.63671127 55.00444122 9.27342255 55.00672913 9.9294281 C55.0287804 16.53115276 55.04390593 23.13286704 55.05493164 29.73461914 C55.05997356 32.20142033 55.06680691 34.66821852 55.07543945 37.13500977 C55.08751125 40.67204529 55.09322956 44.20904145 55.09765625 47.74609375 C55.10281754 48.85649521 55.10797882 49.96689667 55.11329651 51.11094666 C55.11337204 52.13192947 55.11344757 53.15291229 55.11352539 54.20483398 C55.115746 55.10862289 55.11796661 56.0124118 55.12025452 56.94358826 C55 59 55 59 54 60 C51.63305664 60.28491211 51.63305664 60.28491211 49 60 C47.33764648 58.52563477 47.33764648 58.52563477 45.87109375 56.44140625 C45.03989014 55.28608398 45.03989014 55.28608398 44.19189453 54.10742188 C43.61294434 53.26759766 43.03399414 52.42777344 42.4375 51.5625 C41.8276123 50.70591797 41.21772461 49.84933594 40.58935547 48.96679688 C38.71079962 46.32171227 36.85471069 43.66183953 35 41 C33.90133347 39.44548686 32.80115505 37.89204078 31.69921875 36.33984375 C29.76146012 33.6079858 27.83343525 30.86979707 25.9140625 28.125 C22.32681901 23.04707892 18.65678214 18.02807545 15 13 C15 25.21 15 37.42 15 50 C16.98 50.66 18.96 51.32 21 52 C21.04254356 53.99954746 21.04080783 56.00041636 21 58 C20 59 20 59 18.05053711 59.11352539 C16.8015564 59.10567017 16.8015564 59.10567017 15.52734375 59.09765625 C14.62822266 59.09443359 13.72910156 59.09121094 12.80273438 59.08789062 C11.38444336 59.07532227 11.38444336 59.07532227 9.9375 59.0625 C8.98810547 59.05798828 8.03871094 59.05347656 7.06054688 59.04882812 C4.70696935 59.0370011 2.35351523 59.02052025 0 59 C-0.38063221 56.6739143 -0.71269945 54.33944736 -1 52 C-0.505 51.505 -0.505 51.505 0 51 C1.98 51 3.96 51 6 51 C6 36.81 6 22.62 6 8 C4.02 8 2.04 8 0 8 C-0.33 7.67 -0.66 7.34 -1 7 C-0.71269945 4.66055264 -0.38063221 2.3260857 0 0 Z " fill="#070707" transform="translate(700,712)"/>
<path d="M0 0 C0.87454834 0.00523682 1.74909668 0.01047363 2.65014648 0.01586914 C3.59438477 0.0190918 4.53862305 0.02231445 5.51147461 0.02563477 C6.50469727 0.03401367 7.49791992 0.04239258 8.52124023 0.05102539 C9.51833008 0.05553711 10.51541992 0.06004883 11.54272461 0.06469727 C14.01478872 0.07652532 16.48673541 0.0930069 18.95874023 0.11352539 C18.95874023 2.75352539 18.95874023 5.39352539 18.95874023 8.11352539 C16.97874023 8.11352539 14.99874023 8.11352539 12.95874023 8.11352539 C12.95874023 13.72352539 12.95874023 19.33352539 12.95874023 25.11352539 C23.51874023 25.11352539 34.07874023 25.11352539 44.95874023 25.11352539 C44.95874023 19.50352539 44.95874023 13.89352539 44.95874023 8.11352539 C42.97874023 8.11352539 40.99874023 8.11352539 38.95874023 8.11352539 C38.916323 5.78057764 38.91781086 3.44649972 38.95874023 1.11352539 C39.95874023 0.11352539 39.95874023 0.11352539 42 0 C42.87454834 0.00523682 43.74909668 0.01047363 44.65014648 0.01586914 C45.59438477 0.0190918 46.53862305 0.02231445 47.51147461 0.02563477 C48.50469727 0.03401367 49.49791992 0.04239258 50.52124023 0.05102539 C51.51833008 0.05553711 52.51541992 0.06004883 53.54272461 0.06469727 C56.01478872 0.07652532 58.48673541 0.0930069 60.95874023 0.11352539 C60.95874023 2.42352539 60.95874023 4.73352539 60.95874023 7.11352539 C58.97874023 7.77352539 56.99874023 8.43352539 54.95874023 9.11352539 C54.95874023 22.64352539 54.95874023 36.17352539 54.95874023 50.11352539 C56.93874023 50.77352539 58.91874023 51.43352539 60.95874023 52.11352539 C61.0012838 54.11307285 60.99954806 56.11394175 60.95874023 58.11352539 C59.36936467 59.70290095 57.71974178 59.24333682 55.52124023 59.24633789 C54.17932617 59.24827148 54.17932617 59.24827148 52.81030273 59.25024414 C51.86928711 59.24637695 50.92827148 59.24250977 49.95874023 59.23852539 C48.5472168 59.24432617 48.5472168 59.24432617 47.10717773 59.25024414 C46.21256836 59.24895508 45.31795898 59.24766602 44.39624023 59.24633789 C43.56995117 59.24520996 42.74366211 59.24408203 41.89233398 59.24291992 C39.95874023 59.11352539 39.95874023 59.11352539 38.95874023 58.11352539 C38.83374023 55.11352539 38.83374023 55.11352539 38.95874023 52.11352539 C39.28874023 51.78352539 39.61874023 51.45352539 39.95874023 51.11352539 C41.60874023 51.11352539 43.25874023 51.11352539 44.95874023 51.11352539 C44.95874023 44.51352539 44.95874023 37.91352539 44.95874023 31.11352539 C34.39874023 31.11352539 23.83874023 31.11352539 12.95874023 31.11352539 C12.95874023 37.71352539 12.95874023 44.31352539 12.95874023 51.11352539 C16.42374023 51.60852539 16.42374023 51.60852539 19.95874023 52.11352539 C19.62874023 54.42352539 19.29874023 56.73352539 18.95874023 59.11352539 C15.47959083 59.14240353 12.00047193 59.16028226 8.52124023 59.17602539 C7.03140625 59.18859375 7.03140625 59.18859375 5.51147461 59.20141602 C4.56723633 59.20463867 3.62299805 59.20786133 2.65014648 59.21118164 C1.77559814 59.21641846 0.9010498 59.22165527 0 59.22705078 C-2.04125977 59.11352539 -2.04125977 59.11352539 -3.04125977 58.11352539 C-3.08206759 56.11394175 -3.08380333 54.11307285 -3.04125977 52.11352539 C-1.06125977 51.45352539 0.91874023 50.79352539 2.95874023 50.11352539 C2.95874023 36.58352539 2.95874023 23.05352539 2.95874023 9.11352539 C0.97874023 8.45352539 -1.00125977 7.79352539 -3.04125977 7.11352539 C-3.08380333 5.11397793 -3.08206759 3.11310903 -3.04125977 1.11352539 C-2.04125977 0.11352539 -2.04125977 0.11352539 0 0 Z " fill="#040404" transform="translate(607.041259765625,711.886474609375)"/>
<path d="M0 0 C0.66 0.66 1.32 1.32 2 2 C2.66 0.35 3.32 -1.3 4 -3 C5.99954746 -3.04254356 8.00041636 -3.04080783 10 -3 C11.8855253 -1.1144747 11.13246689 1.57768831 11.13671875 4.08203125 C11.13285156 4.87996094 11.12898438 5.67789063 11.125 6.5 C11.13080078 7.69689453 11.13080078 7.69689453 11.13671875 8.91796875 C11.12660767 14.87339233 11.12660767 14.87339233 10 16 C7.72265625 16.3359375 7.72265625 16.3359375 5 16 C2.68359375 14.1015625 2.68359375 14.1015625 0.4375 11.625 C-3.14548425 7.71290281 -5.43989284 5.30664236 -10.8046875 4.6640625 C-19.14805902 4.54471678 -19.14805902 4.54471678 -26 9 C-32.2886635 16.56014191 -32.76714746 23.25398585 -32 33 C-30.37899307 38.9838313 -27.00369867 42.52804582 -22 46 C-14.31965845 49.6984195 -5.19678714 48.26104418 3 47 C2.505 41.06 2.505 41.06 2 35 C0.02 34.34 -1.96 33.68 -4 33 C-4.04241723 30.66705225 -4.04092937 28.33297433 -4 26 C-3 25 -3 25 -1.05053711 24.88647461 C-0.2178833 24.89171143 0.61477051 24.89694824 1.47265625 24.90234375 C2.37177734 24.90556641 3.27089844 24.90878906 4.19726562 24.91210938 C5.14279297 24.92048828 6.08832031 24.92886719 7.0625 24.9375 C8.01189453 24.94201172 8.96128906 24.94652344 9.93945312 24.95117188 C12.29303065 24.9629989 14.64648477 24.97947975 17 25 C17.25 27.8125 17.25 27.8125 17 31 C16.34668701 31.46519043 15.69337402 31.93038086 15.02026367 32.40966797 C12.81074783 33.81316488 12.81074783 33.81316488 12.4699707 36.16064453 C12.45538818 36.97645996 12.44080566 37.79227539 12.42578125 38.6328125 C12.39806641 39.52097656 12.37035156 40.40914062 12.34179688 41.32421875 C12.32729492 42.71060547 12.32729492 42.71060547 12.3125 44.125 C12.27059902 45.96102497 12.22521792 47.79697498 12.17578125 49.6328125 C12.16458252 50.44637207 12.15338379 51.25993164 12.1418457 52.09814453 C12 54 12 54 11 55 C9.64583193 55.02074218 8.29077421 54.99088818 6.9375 54.9375 C3.10889452 54.88340667 -0.00709465 55.51643943 -3.70703125 56.54296875 C-13.56897931 58.50863812 -23.13876578 57.18966351 -31.6875 51.9375 C-37.75377031 47.26788262 -41.69829087 39.41974206 -43 32 C-43.9263377 22.78004511 -42.43501115 14.87771583 -37.046875 7.2265625 C-26.87498356 -4.90146191 -14.15576538 -7.59037126 0 0 Z " fill="#080808" transform="translate(1094,715)"/>
<path d="M0 0 C5.80672911 2.52792948 8.73601643 7.17736184 11.2734375 12.84375 C14.99878285 23.09505494 15.15867582 31.87110396 11 42 C6.687556 51.21923125 0.58367333 57.0258164 -8.5625 61.4375 C-17.41333691 64.56616793 -27.19974021 64.64130362 -35.80932617 60.8425293 C-41.80188791 57.85551486 -46.49338109 54.73810367 -50 49 C-49.62890625 46.2890625 -49.62890625 46.2890625 -49 44 C-48.30551758 43.93530518 -47.61103516 43.87061035 -46.89550781 43.80395508 C-21.82792487 41.49780474 -21.82792487 41.49780474 -1.625 27.4375 C1.56412554 22.6538117 2.27491216 18.79852578 2.25 13.0625 C2.25515625 11.87785156 2.2603125 10.69320312 2.265625 9.47265625 C1.99993706 5.99917717 1.24620553 3.23914532 0 0 Z " fill="#64BADE" transform="translate(1267,914)"/>
<path d="M0 0 C7.72205624 4.46927227 13.12454313 10.64281622 15.890625 19.20703125 C17.51752031 28.00853485 16.79582917 36.54298438 12.28125 44.3203125 C7.70531439 50.90039206 1.40867028 56.84784915 -6.71875 58.3203125 C-16.9140331 59.28837424 -25.21508128 58.54781125 -33.71875 52.3203125 C-36.56633863 49.56409035 -38.70637691 46.72722483 -40.71875 43.3203125 C-41.07710937 42.72863281 -41.43546875 42.13695312 -41.8046875 41.52734375 C-45.26533245 34.33618703 -45.12393769 23.71988824 -42.734375 16.23828125 C-41.54365458 13.78701422 -40.2525947 11.56995139 -38.71875 9.3203125 C-38.120625 8.3921875 -37.5225 7.4640625 -36.90625 6.5078125 C-27.07517122 -3.32326628 -12.65670278 -5.87632629 0 0 Z M-31.58984375 15.453125 C-35.26108043 21.52527425 -34.75029555 31.08243428 -33.10546875 37.83984375 C-30.7422349 43.11807971 -26.47036556 47.11854029 -21.71875 50.3203125 C-16.84517453 51.96082708 -11.42356654 52.3266417 -6.56640625 50.51953125 C-1.05034498 47.4385834 2.49662439 42.94737601 5.28125 37.3203125 C7.52309002 28.62634756 6.81581779 21.08111377 2.28125 13.3203125 C-0.47576204 8.82667722 -3.6118186 6.3545538 -8.61328125 4.796875 C-19.14429629 2.41323152 -25.5356812 6.97399815 -31.58984375 15.453125 Z " fill="#070707" transform="translate(1004.71875,713.6796875)"/>
<path d="M0 0 C7.89821432 8.44925253 10.16996935 16.52593249 9.96484375 27.78125 C9.6161293 35.34540428 6.66948313 41.79527076 1.53125 47.33984375 C-6.98993817 54.43481611 -16.58356908 55.75855902 -27.3125 54.875 C-34.65986128 53.02141038 -41.43391418 48.21423322 -45.62890625 41.890625 C-50.03031438 33.51008406 -51.89692444 24.58373385 -49.6953125 15.26171875 C-46.88065637 7.25364842 -41.6808873 0.32632774 -34.0625 -3.625 C-22.61012414 -8.73597766 -10.33431685 -6.62956176 0 0 Z M-35.75 8.9375 C-40.51778353 15.70593383 -40.05529105 23.89050223 -39.3125 31.875 C-37.77244007 38.3608524 -34.7351358 42.14693789 -29.3125 45.875 C-24.74219153 48.54730847 -20.48549564 48.48953632 -15.3125 47.875 C-9.80007541 46.27954956 -6.4625442 43.48922745 -3.3203125 38.75390625 C0.66095651 31.33146286 1.12465284 22.48592006 -0.96484375 14.328125 C-3.74567743 8.16971221 -9.11883763 3.4753926 -15.3125 0.875 C-23.8567815 -0.50621844 -30.49447495 2.1428569 -35.75 8.9375 Z " fill="#070707" transform="translate(842.3125,717.125)"/>
<path d="M0 0 C1.77206192 0.00015919 3.54412846 0.00585754 5.31616211 0.01586914 C6.24698105 0.01728409 7.17779999 0.01869904 8.13682556 0.02015686 C11.12241777 0.02577367 14.10793615 0.03832899 17.09350586 0.05102539 C19.11238499 0.05603823 21.13126529 0.06060151 23.15014648 0.06469727 C28.11046158 0.07574856 33.07072118 0.09302444 38.03100586 0.11352539 C42.6515039 13.92793165 42.6515039 13.92793165 41.03100586 19.11352539 C39.38100586 19.44352539 37.73100586 19.77352539 36.03100586 20.11352539 C34.02408784 15.17985192 33.03100586 12.55831934 33.03100586 7.11352539 C25.77100586 7.11352539 18.51100586 7.11352539 11.03100586 7.11352539 C11.03100586 12.72352539 11.03100586 18.33352539 11.03100586 24.11352539 C12.02100586 23.78352539 13.01100586 23.45352539 14.03100586 23.11352539 C16.04929747 22.99447664 18.07174357 22.93830827 20.09350586 22.92602539 C21.15698242 22.9118457 22.22045898 22.89766602 23.31616211 22.88305664 C26.03100586 23.11352539 26.03100586 23.11352539 28.03100586 25.11352539 C28.40372132 28.02070595 28.42378724 29.52435332 26.78100586 31.98852539 C25.03100586 33.11352539 25.03100586 33.11352539 22.90600586 32.86352539 C21.03100586 32.11352539 21.03100586 32.11352539 20.03100586 31.11352539 C17.06100586 30.78352539 14.09100586 30.45352539 11.03100586 30.11352539 C11.03100586 37.37352539 11.03100586 44.63352539 11.03100586 52.11352539 C18.62100586 52.11352539 26.21100586 52.11352539 34.03100586 52.11352539 C34.50538086 50.17477539 34.97975586 48.23602539 35.46850586 46.23852539 C36.90600586 40.36352539 36.90600586 40.36352539 38.03100586 38.11352539 C41.00100586 38.60852539 41.00100586 38.60852539 44.03100586 39.11352539 C45.63112114 43.14419553 44.37395513 46.21509297 43.15600586 50.23852539 C42.78733398 51.47860352 42.41866211 52.71868164 42.03881836 53.99633789 C41.03100586 57.11352539 41.03100586 57.11352539 40.03100586 59.11352539 C33.78304911 59.13879663 27.53510544 59.15635883 21.28710938 59.16845703 C19.15982572 59.17349837 17.03254555 59.1803313 14.90527344 59.18896484 C11.8547276 59.20103918 8.80422741 59.20675553 5.75366211 59.21118164 C4.3177346 59.21892357 4.3177346 59.21892357 2.85279846 59.2268219 C1.97196091 59.22689743 1.09112335 59.22697296 0.18359375 59.22705078 C-0.98555824 59.2303817 -0.98555824 59.2303817 -2.17832947 59.23377991 C-3.96899414 59.11352539 -3.96899414 59.11352539 -4.96899414 58.11352539 C-5.00980197 56.11394175 -5.0115377 54.11307285 -4.96899414 52.11352539 C-2.98899414 51.45352539 -1.00899414 50.79352539 1.03100586 50.11352539 C1.03100586 36.58352539 1.03100586 23.05352539 1.03100586 9.11352539 C-0.94899414 8.45352539 -2.92899414 7.79352539 -4.96899414 7.11352539 C-5.0115377 5.11397793 -5.00980197 3.11310903 -4.96899414 1.11352539 C-3.96899414 0.11352539 -3.96899414 0.11352539 0 0 Z " fill="#060606" transform="translate(451.968994140625,711.886474609375)"/>
<path d="M0 0 C1.58648495 1.12043505 3.06538626 2.19038626 4.4375 3.5625 C5.0975 1.9125 5.7575 0.2625 6.4375 -1.4375 C8.4175 -1.4375 10.3975 -1.4375 12.4375 -1.4375 C14.01674842 1.72099685 13.58066514 5.0990128 13.5625 8.5625 C13.56830078 9.66851563 13.56830078 9.66851563 13.57421875 10.796875 C13.5641598 16.3091804 13.5641598 16.3091804 12.4375 18.5625 C10.19140625 18.8671875 10.19140625 18.8671875 7.4375 18.5625 C5.33984375 16.4453125 5.33984375 16.4453125 3.375 13.6875 C0.18087572 9.14151744 0.18087572 9.14151744 -4.5625 6.5625 C-9.47193384 5.86578167 -13.44804196 6.02590909 -17.9375 8.1875 C-23.98285879 13.65711033 -26.51629238 19.86435402 -26.9375 27.9375 C-26.76609211 33.85611371 -24.90090761 38.96919488 -20.9140625 43.390625 C-15.50037098 48.26058331 -10.76148346 50.06388346 -3.4765625 49.96484375 C2.1450678 49.18866691 7.27159204 46.82966964 12.4375 44.5625 C12.7675 44.8925 13.0975 45.2225 13.4375 45.5625 C13.375 48.875 13.375 48.875 12.4375 52.5625 C6.0221456 58.21412173 -1.33028274 58.98325772 -9.5703125 58.80859375 C-17.3877896 58.16564198 -24.02724475 55.16752738 -29.5625 49.5625 C-36.36599359 40.06718938 -37.97321424 31.04306395 -36.5625 19.5625 C-33.9023311 10.6592779 -28.71865866 4.01292763 -20.625 -0.5234375 C-13.76018091 -3.54063621 -6.48056754 -3.9996347 0 0 Z " fill="#090808" transform="translate(560.5625,713.4375)"/>
<path d="M0 0 C7.26 0 14.52 0 22 0 C22.33 2.31 22.66 4.62 23 7 C21.35 7.33 19.7 7.66 18 8 C21.63566563 14.68412752 25.29224236 21.35556707 29 28 C35.15238215 18.09072158 35.15238215 18.09072158 41 8 C38.525 7.505 38.525 7.505 36 7 C36 4.69 36 2.38 36 0 C43.26 0 50.52 0 58 0 C58 1.98 58 3.96 58 6 C55 8 55 8 52.05419922 8.80395508 C46.39028342 11.02198254 44.12566624 16.6456088 41.125 21.6875 C40.44751709 22.81406006 39.77003418 23.94062012 39.07202148 25.10131836 C34.18187655 33.67427881 31.85334293 40.22078446 34 50 C35.98 50.66 37.96 51.32 40 52 C40 54.31 40 56.62 40 59 C32.74 59 25.48 59 18 59 C18 56.36 18 53.72 18 51 C19.98 51 21.96 51 24 51 C25.2956341 39.0768862 21.99260209 30.79575363 15.875 20.5625 C14.89744751 18.90069702 14.89744751 18.90069702 13.90014648 17.20532227 C10.19337858 10.84785364 10.19337858 10.84785364 4.0703125 7.33984375 C3.05710937 7.22769531 2.04390625 7.11554687 1 7 C0.67 6.67 0.34 6.34 0 6 C0 4.02 0 2.04 0 0 Z " fill="#070707" transform="translate(1139,712)"/>
<path d="M0 0 C15.18 0 30.36 0 46 0 C48.3033033 8.06156156 48.3033033 8.06156156 48.75 11.8125 C48.89695312 12.93591797 48.89695312 12.93591797 49.046875 14.08203125 C49 16 49 16 47 18 C45.35 17.67 43.7 17.34 42 17 C41.01 13.7 40.02 10.4 39 7 C33.555 6.505 33.555 6.505 28 6 C28 20.85 28 35.7 28 51 C30.31 51.33 32.62 51.66 35 52 C34.67 54.31 34.34 56.62 34 59 C26.74 59 19.48 59 12 59 C12 56.69 12 54.38 12 52 C13.98 51.34 15.96 50.68 18 50 C18 35.81 18 21.62 18 7 C12.555 6.505 12.555 6.505 7 6 C6.690625 7.423125 6.38125 8.84625 6.0625 10.3125 C5.48800637 12.95517072 4.85697694 15.42906918 4 18 C1.625 18.125 1.625 18.125 -1 18 C-1.66 17.34 -2.32 16.68 -3 16 C-2.6085621 10.32415042 -1.41042591 5.64170364 0 0 Z " fill="#070707" transform="translate(369,712)"/>
<path d="M0 0 C3.31248187 -0.02888146 6.62493167 -0.04675799 9.9375 -0.0625 C10.88302734 -0.07087891 11.82855469 -0.07925781 12.80273438 -0.08789062 C14.15141602 -0.09272461 14.15141602 -0.09272461 15.52734375 -0.09765625 C16.77632446 -0.10551147 16.77632446 -0.10551147 18.05053711 -0.11352539 C20 0 20 0 21 1 C21.04080783 2.99958364 21.04254356 5.00045254 21 7 C19.35 7.33 17.7 7.66 16 8 C15.67 22.52 15.34 37.04 15 52 C21.27 51.67 27.54 51.34 34 51 C34.804375 49.040625 35.60875 47.08125 36.4375 45.0625 C38.875 39.125 38.875 39.125 40 38 C42.4375 37.8125 42.4375 37.8125 45 38 C45.66 38.66 46.32 39.32 47 40 C46.60750536 44.01606121 45.0752824 47.50115601 43.5 51.1875 C43.0565625 52.23292969 42.613125 53.27835938 42.15625 54.35546875 C41.47246222 55.91940229 40.76334184 57.47331631 40 59 C26.8 59 13.6 59 0 59 C-0.33 56.69 -0.66 54.38 -1 52 C-0.505 51.505 -0.505 51.505 0 51 C1.98 51 3.96 51 6 51 C6 36.81 6 22.62 6 8 C4.02 8 2.04 8 0 8 C-0.33 7.67 -0.66 7.34 -1 7 C-0.71269945 4.66055264 -0.38063221 2.3260857 0 0 Z " fill="#040404" transform="translate(884,712)"/>
</svg>
